<?xml version="1.0" encoding="utf-8"?>
<svg width="24px" height="17px" viewbox="0 0 24 17" version="1.1" xmlns:xlink="http://www.w3.org/1999/xlink" xmlns="http://www.w3.org/2000/svg">
  <g id="brisi">
    <path d="M2.84644 0C3.63122 1.33911e-15 4.34277 0.31469 4.85816 0.822615C5.37356 1.33054 5.69288 2.03178 5.69288 2.80519C5.69288 3.57862 5.3736 4.27989 4.8582 4.78783C4.34284 5.29571 3.63132 5.61037 2.84644 5.61037C2.06166 5.61037 1.35011 5.29568 0.834713 4.78776C0.319318 4.27983 0 3.57859 0 2.80519C0 2.03178 0.319318 1.33054 0.834713 0.822615C1.35011 0.31469 2.06166 1.33911e-15 2.84644 0ZM2.84644 1.04922C2.35512 1.04922 1.90962 1.24603 1.58699 1.56399C1.26435 1.88195 1.06465 2.32099 1.06465 2.80519C1.06465 3.28938 1.26435 3.72843 1.58699 4.04638C1.90962 4.36434 2.35512 4.56115 2.84644 4.56115C3.33776 4.56115 3.78327 4.36435 4.1059 4.04639C4.42853 3.72844 4.62822 3.2894 4.62822 2.80519C4.62822 2.32099 4.42852 1.88195 4.10589 1.56399C3.78325 1.24603 3.33776 1.04922 2.84644 1.04922Z" transform="translate(15.401611 10.642578)" id="Shape" fill="#000000" stroke="none" />
    <path d="M2.84644 0C3.63122 1.33911e-15 4.34277 0.31469 4.85816 0.822615C5.37356 1.33054 5.69288 2.03178 5.69288 2.80519C5.69288 3.57859 5.37356 4.27983 4.85816 4.78776C4.34277 5.29568 3.63122 5.61037 2.84644 5.61037C2.06166 5.61037 1.35011 5.29568 0.834713 4.78776C0.319318 4.27983 6.79403e-16 3.57859 0 2.80519C-6.79403e-16 2.03178 0.319318 1.33054 0.834713 0.822615C1.35011 0.31469 2.06166 2.67823e-15 2.84644 0ZM2.84644 1.04922C2.35512 1.04922 1.90962 1.24603 1.58699 1.56399C1.26435 1.88195 1.06465 2.32099 1.06465 2.80519C1.06465 3.28938 1.26435 3.72843 1.58699 4.04638C1.90962 4.36434 2.35512 4.56115 2.84644 4.56115C3.33776 4.56115 3.78327 4.36435 4.1059 4.04639C4.42853 3.72844 4.62822 3.2894 4.62822 2.80519C4.62822 2.32102 4.42849 1.882 4.10586 1.56404C3.78318 1.24604 3.33765 1.04922 2.84644 1.04922Z" transform="translate(4.859619 10.642578)" id="Shape" fill="#000000" stroke="none" />
    <path d="M3.82351 0C3.92413 0 4.02046 0.0279409 4.10294 0.0780287C4.18544 0.128128 4.25408 0.200382 4.29929 0.28887L4.29929 0.28887L6.506 4.61415L5.55443 5.08568L3.49518 1.04922L0 1.04922L0 0L3.82351 0Z" transform="translate(15.813049 1.5205078)" id="Path" fill="#000000" fill-rule="evenodd" stroke="none" />
    <path d="M5.3586 0L5.3586 1.04922L0 1.04922L1.35881e-15 0L5.3586 0Z" transform="translate(10.336365 12.948242)" id="Rectangle" fill="#000000" fill-rule="evenodd" stroke="none" />
    <path d="M3.20634 0C3.35337 0 3.48646 0.0587002 3.5828 0.153634C3.67913 0.24856 3.73869 0.379708 3.73869 0.524588C3.73869 0.669461 3.67913 0.800615 3.5828 0.895547C3.48648 0.990474 3.3534 1.04918 3.20639 1.04918L3.20639 1.04918L0.532303 1.04918C0.3853 1.04918 0.252217 0.990474 0.155888 0.895542C0.0595659 0.800615 -3.39702e-16 0.669468 0 0.524588C0 0.379716 0.0595656 0.248561 0.155894 0.153629C0.252216 0.0587026 0.385292 0 0.532303 0L0.532303 0L3.20634 0Z" transform="translate(2.185608 12.948242)" id="Path" fill="#000000" fill-rule="evenodd" stroke="none" />
    <path d="M13.3885 0C13.5355 4.18473e-17 13.6685 0.0587023 13.7649 0.153635C13.8612 0.248561 13.9208 0.379708 13.9208 0.524588L13.9208 0.524588L13.9208 6.08148L19.7651 6.08148C19.9295 6.08148 20.0847 6.15616 20.1854 6.28434L20.1854 6.28434L21.7026 8.21005C21.775 8.30206 21.8144 8.41542 21.8144 8.53193L21.8144 8.53193L21.8144 13.4731C21.8144 13.6179 21.7548 13.7491 21.6585 13.844C21.5622 13.9389 21.4291 13.9977 21.2821 13.9977L21.2821 13.9977L18.3766 13.9977C18.2296 13.9977 18.0965 13.939 18.0002 13.844C17.9039 13.7491 17.8443 13.6179 17.8443 13.4731C17.8443 13.3282 17.9039 13.197 18.0002 13.1021C18.0965 13.0072 18.2296 12.9485 18.3766 12.9485L18.3766 12.9485L20.7498 12.9485L20.7498 8.71163L19.5044 7.13066L13.3884 7.13066C13.2414 7.13066 13.1083 7.07196 13.012 6.97702C12.9157 6.8821 12.8561 6.75095 12.8561 6.60607L12.8561 6.60607L12.8561 1.04918L0.532303 1.04918C0.385304 1.04918 0.252227 0.990466 0.1559 0.895536C0.0595734 0.800605 -3.39702e-16 0.669456 0 0.524588C0 0.379716 0.0595656 0.248561 0.155894 0.153629C0.252216 0.0587026 0.385292 1.25542e-16 0.532303 8.36946e-17L0.532303 4.18473e-17L13.3885 0Z" transform="translate(2.185608 0)" id="Path" fill="#000000" fill-rule="evenodd" stroke="none" />
    <path d="M4.08062 0C4.22761 -1.33911e-15 4.36067 0.0587047 4.45699 0.153629C4.55331 0.248562 4.61288 0.379716 4.61288 0.524588C4.61288 0.669461 4.55331 0.800615 4.45698 0.895547C4.36066 0.990474 4.22758 1.04918 4.08057 1.04918L4.08057 1.04918L0.532303 1.04918C0.3853 1.04918 0.252217 0.990474 0.155888 0.895542C0.0595659 0.800615 0 0.669468 0 0.524588C1.69851e-16 0.379716 0.0595656 0.248561 0.155894 0.153629C0.252216 0.0587026 0.385292 -1.33911e-15 0.532303 0L0.532303 0L4.08062 0Z" transform="translate(1.2598877 9.09668)" id="Path" fill="#000000" fill-rule="evenodd" stroke="none" />
    <path d="M7.11466 0C7.26167 -1.33911e-15 7.39474 0.0587109 7.49106 0.153641C7.58739 0.248585 7.64696 0.379754 7.64696 0.524635C7.64696 0.669508 7.5874 0.800662 7.49107 0.895595C7.39475 0.990521 7.26167 1.04922 7.11466 1.04922L7.11466 1.04922L0.532303 1.04922C0.3853 1.04922 0.252217 0.990521 0.155888 0.895589C0.0595659 0.800663 0 0.669515 0 0.524635C0 0.379747 0.0595712 0.248585 0.1559 0.153647C0.252226 0.0587106 0.385304 -1.33911e-15 0.532303 0L0.532303 0L7.11466 0Z" transform="translate(0 6.107422)" id="Path" fill="#000000" fill-rule="evenodd" stroke="none" />
    <path d="M7.11466 0C7.26167 0 7.39475 0.0587026 7.49107 0.153629C7.5874 0.248561 7.64696 0.379716 7.64696 0.524588C7.64696 0.669461 7.5874 0.800615 7.49107 0.895547C7.39475 0.990474 7.26167 1.04918 7.11466 1.04918L7.11466 1.04918L0.532303 1.04918C0.3853 1.04918 0.252217 0.990474 0.155888 0.895542C0.0595659 0.800615 0 0.669468 0 0.524588C0 0.379716 0.0595656 0.248561 0.155894 0.153629C0.252216 0.0587026 0.385292 0 0.532303 0L0.532303 0L7.11466 0Z" transform="translate(1.2598877 3.1171875)" id="Path" fill="#000000" fill-rule="evenodd" stroke="none" />
  </g>
</svg>