<?xml version="1.0" encoding="UTF-8"?>
<svg width="30px" height="28px" viewBox="0 0 30 28" version="1.1" xmlns="http://www.w3.org/2000/svg" xmlns:xlink="http://www.w3.org/1999/xlink">
    <title>images</title>
    <g id="Page-1" stroke="none" stroke-width="1" fill="none" fill-rule="evenodd" opacity="0.5">
        <g id="buy-back2" transform="translate(-688.000000, -1203.000000)" fill="#232323" fill-rule="nonzero">
            <g id="images" transform="translate(688.000000, 1203.000000)">
                <path d="M21.7737232,27.4463938 C21.5641326,27.4463938 21.3495517,27.4201949 21.1374659,27.3640546 L1.84639376,22.1978947 C0.523976608,21.8336062 -0.264483431,20.4637817 0.0823391813,19.1413645 L2.51633528,10.0690838 C2.60615984,9.73598441 2.9479922,9.54261209 3.27984405,9.62744639 C3.61294347,9.71602339 3.81005848,10.0591033 3.72148148,10.3909552 L1.28873294,19.4607407 C1.11532164,20.1219493 1.51204678,20.8106043 2.17450292,20.9939961 L21.4580897,26.1576608 C22.1205458,26.3323197 22.8042105,25.9380897 22.9763743,25.2793762 L23.9507212,21.6689279 C24.0405458,21.3358285 24.3823782,21.1374659 24.7154776,21.228538 C25.048577,21.3183626 25.2444444,21.6614425 25.1558674,21.9932943 L24.182768,25.5987524 C23.8895906,26.7090838 22.8790643,27.4463938 21.7737232,27.4463938 L21.7737232,27.4463938 Z" id="Path"></path>
                <path d="M27.4463938,19.9610136 L7.48538012,19.9610136 C6.10931774,19.9610136 4.99025341,18.8419493 4.99025341,17.4658869 L4.99025341,2.49512671 C4.99025341,1.11906433 6.10931774,0 7.48538012,0 L27.4463938,0 C28.8224561,0 29.9415205,1.11906433 29.9415205,2.49512671 L29.9415205,17.4658869 C29.9415205,18.8419493 28.8224561,19.9610136 27.4463938,19.9610136 Z M7.48538012,1.24756335 C6.79797271,1.24756335 6.23781676,1.8077193 6.23781676,2.49512671 L6.23781676,17.4658869 C6.23781676,18.1532943 6.79797271,18.7134503 7.48538012,18.7134503 L27.4463938,18.7134503 C28.1338012,18.7134503 28.6939571,18.1532943 28.6939571,17.4658869 L28.6939571,2.49512671 C28.6939571,1.8077193 28.1338012,1.24756335 27.4463938,1.24756335 L7.48538012,1.24756335 Z" id="Shape"></path>
                <path d="M11.2280702,8.73294347 C9.8520078,8.73294347 8.73294347,7.61387914 8.73294347,6.23781676 C8.73294347,4.86175439 9.8520078,3.74269006 11.2280702,3.74269006 C12.6041326,3.74269006 13.7231969,4.86175439 13.7231969,6.23781676 C13.7231969,7.61387914 12.6041326,8.73294347 11.2280702,8.73294347 Z M11.2280702,4.99025341 C10.5406628,4.99025341 9.98050682,5.55040936 9.98050682,6.23781676 C9.98050682,6.92522417 10.5406628,7.48538012 11.2280702,7.48538012 C11.9154776,7.48538012 12.4756335,6.92522417 12.4756335,6.23781676 C12.4756335,5.55040936 11.9154776,4.99025341 11.2280702,4.99025341 Z" id="Shape"></path>
                <path d="M5.70136452,18.6261209 C5.54167641,18.6261209 5.3819883,18.5649903 5.2597271,18.4439766 C5.01645224,18.2007018 5.01645224,17.8052242 5.2597271,17.5619493 L11.1519688,11.6697076 C11.8580897,10.9635867 13.0919298,10.9635867 13.7980507,11.6697076 L15.5521248,13.4237817 L20.4076413,7.59766082 C20.7607018,7.17473684 21.2796881,6.92896686 21.8323587,6.92397661 L21.8460819,6.92397661 C22.3925146,6.92397661 22.9102534,7.16101365 23.2670565,7.57645224 L29.7918129,15.1890838 C30.0163743,15.4498246 29.9864327,15.8440546 29.7244444,16.068616 C29.4637037,16.2931774 29.0707212,16.2644834 28.8449123,16.0012476 L22.3201559,8.38861598 C22.1991423,8.24888889 22.0319688,8.17153996 21.8460819,8.17153996 C21.7163353,8.16031189 21.4880312,8.25013645 21.3670175,8.39610136 L16.0736062,14.7474464 C15.9613255,14.8821832 15.7978947,14.9632749 15.6219883,14.9707602 C15.4448343,14.9832359 15.2764133,14.9133723 15.1529045,14.788616 L12.9160234,12.5517349 C12.6802339,12.317193 12.2697856,12.317193 12.0339961,12.5517349 L6.14175439,18.4439766 C6.02074074,18.5649903 5.86105263,18.6261209 5.70136452,18.6261209 L5.70136452,18.6261209 Z" id="Path"></path>
            </g>
        </g>
    </g> 
</svg>