<svg xmlns="http://www.w3.org/2000/svg" width="14.017" height="12.991" viewBox="0 0 14.017 12.991">
  <g>
    <path fill="rgb(43,151,212)" fill-rule="evenodd" d="M5.11019754 9.9479007v2.61969857c0 .1830061.12147608.34511337.30135412.4027264.04496951.01412085.09110706.02089885.13666059.02089885.13666059 0 .26864902-.0621317.35274784-.1728391l1.5844452-2.08536592-2.37520775-.7851188z"/>
    <path fill="rgb(43,151,212)" fill-rule="evenodd" d="M13.83253039.07856193c-.13432451-.09206789-.31069843-.10449423-.45670334-.03050102L.23538588 6.68485657c-.15534922.07851188-.2470403.23892464-.23419186.4078099.01343245.16945011.12965235.31404753.2949299.3688364l3.65304264 1.20761439 7.7797252-6.43345553L5.70881764 9.2503311l6.12227755 2.02379905c.04555353.01468567.09344314.02259335.14133275.02259335.07942666 0 .15826931-.02089885.22776764-.06156687.11096373-.06552071.18630226-.17566328.2055749-.29936185L14.01182442.48637184c.0239448-.15815343-.04496951-.31517719-.17929402-.4078099z"/>
  </g>
</svg>
